<svg width="512" height="512" viewBox="0 0 512 512" xmlns="http://www.w3.org/2000/svg">
  <!-- Background -->
  <rect width="512" height="512" rx="80" fill="#F5F5DC"/>
  
  <!-- Book/Agenda shape -->
  <rect x="100" y="80" width="312" height="352" rx="20" fill="#E6E6E6" stroke="#D4D4AA" stroke-width="4"/>
  
  <!-- Book spine -->
  <rect x="100" y="80" width="40" height="352" rx="20" fill="#D4D4AA"/>
  
  <!-- Tabs on the side -->
  <rect x="412" y="120" width="20" height="60" rx="10" fill="#87CEEB"/>
  <rect x="412" y="200" width="20" height="60" rx="10" fill="#FFA500"/>
  <rect x="412" y="280" width="20" height="60" rx="10" fill="#90EE90"/>
  
  <!-- Person icon in center -->
  <circle cx="256" cy="220" r="40" fill="#B8860B"/>
  <path d="M256 280 C220 280, 190 310, 190 350 L322 350 C322 310, 292 280, 256 280 Z" fill="#B8860B"/>
  
  <!-- Lines representing text -->
  <rect x="160" y="320" width="120" height="4" rx="2" fill="#B8860B"/>
  <rect x="160" y="340" width="80" height="4" rx="2" fill="#B8860B"/>
  <rect x="160" y="360" width="100" height="4" rx="2" fill="#B8860B"/>
</svg>
